<svg width="400" height="400" viewBox="0 0 400 400" fill="none" xmlns="http://www.w3.org/2000/svg">
<rect x="5" y="5" width="390" height="390" rx="97" stroke="white" stroke-width="10"/>
<path d="M363 138.301V108C363 68.7878 331.212 37 292 37H261.736C304.249 60.569 339.433 95.7659 363 138.301Z" fill="white"/>
<path d="M37 130.739V108C37 86.9203 46.1865 67.9861 60.7743 54.9827C84.4042 46.3955 109.906 41.7124 136.5 41.7124C259.016 41.7124 358.336 141.103 358.336 263.707C358.336 290.114 353.729 315.443 345.276 338.934C343.564 340.876 341.747 342.723 339.835 344.468C341.583 333.663 342.492 322.577 342.492 311.279C342.492 197.431 250.265 105.14 136.5 105.14C100.414 105.14 66.4956 114.425 37 130.739Z" fill="white"/>
<path d="M151.225 363H121.775C76.2606 355.918 41.4276 316.526 41.4276 268.993C41.4276 216.449 83.9935 173.852 136.5 173.852C189.007 173.852 231.573 216.449 231.573 268.993C231.573 316.526 196.74 355.918 151.225 363Z" fill="white"/>
<path d="M291.912 363C297.313 346.742 300.237 329.352 300.237 311.279C300.237 266.35 282.168 225.646 252.904 196.045C266.161 217.187 273.828 242.193 273.828 268.993C273.828 305.356 259.715 338.42 236.673 363H291.912Z" fill="white"/>
</svg>
